PathFileType	4	(X/Y/Z)	s01c0102.trc
DataRate	CameraRate	NumFrames	NumMarkers	Units	OrigDataRate	OrigDataStartFrame	OrigNumFrames
200	200	4	48	mm	200	1000	2000
Frame#	Time	racr			lacr			c7			jug			rlel			rdr			llel			ldr			s2			lic			ric			lasi			rasi			rpsi			lpsi			rgt			lgt			rth1			rth2			rth3			rth4			rlfc			rsh1			rsh2			rsh3			rsh4			rlmal			rmmal			rcal			rtoe			rmt5			lth1			lth2			lth4			lth3			llfc			lsh1			lsh2			lsh3			lsh4			llmal			lmmal			lcal			ltoe			lmt5			SBIKE			LBIKE			RBIKE			
		X1	Y1	Z1	X2	Y2	Z2	X3	Y3	Z3	X4	Y4	Z4	X5	Y5	Z5	X6	Y6	Z6	X7	Y7	Z7	X8	Y8	Z8	X9	Y9	Z9	X10	Y10	Z10	X11	Y11	Z11	X12	Y12	Z12	X13	Y13	Z13	X14	Y14	Z14	X15	Y15	Z15	X16	Y16	Z16	X17	Y17	Z17	X18	Y18	Z18	X19	Y19	Z19	X20	Y20	Z20	X21	Y21	Z21	X22	Y22	Z22	X23	Y23	Z23	X24	Y24	Z24	X25	Y25	Z25	X26	Y26	Z26	X27	Y27	Z27	X28	Y28	Z28	X29	Y29	Z29	X30	Y30	Z30	X31	Y31	Z31	X32	Y32	Z32	X33	Y33	Z33	X34	Y34	Z34	X35	Y35	Z35	X36	Y36	Z36	X37	Y37	Z37	X38	Y38	Z38	X39	Y39	Z39	X40	Y40	Z40	X41	Y41	Z41	X42	Y42	Z42	X43	Y43	Z43	X44	Y44	Z44	X45	Y45	Z45	X46	Y46	Z46	X47	Y47	Z47	X48	Y48	Z48	
1000	5.0000	476.325200	1357.252692	-148.700640	513.595758	1284.288167	-441.930100	443.588491	1399.220254	-306.737351	446.398690	1232.102504	-290.660914	544.714392	1092.076439	-43.508978	721.488072	889.152245	-87.688501	551.116766	1027.219277	-561.362015	720.002693	859.580851	-464.816690	-77.573107	1176.337182	-306.097168	92.092586	1170.445550	-472.759108	72.163979	1212.653864	-142.696538	94.729167	1122.215272	-445.586520	105.620637	1165.480228	-170.928269	-54.092580	1224.622913	-260.533121	-52.613019	1214.290757	-364.714661	40.076102	1118.113463	-104.266558	28.960862	1028.041542	-479.329455	159.364268	1060.236379	-92.832994	240.286906	1043.154881	-99.612920	326.373110	1018.407421	-110.853546	252.139878	1093.548945	-123.095312	416.449635	955.291600	-137.407126	363.020036	862.416915	-103.443041	323.733627	786.723247	-99.396137	273.851749	712.804261	-105.346916	363.850729	761.575288	-136.896623	195.077260	595.189343	-116.871966	234.786330	598.302678	-197.556332	142.999184	563.790396	-169.718003	405.760296	501.235947	-146.001418	296.527040	491.286141	-79.225456	75.826934	910.530508	-480.238354	133.893425	842.697628	-479.366691	175.834899	877.527696	-484.737943	184.785069	776.577942	-458.867983	231.910995	674.748159	-441.625590	175.401720	582.796472	-466.933715	150.967712	500.445401	-456.255255	124.435341	420.040500	-439.790410	206.244152	487.182736	-432.122251	89.916470	299.510485	-420.433331	123.095186	303.449228	-345.461442	42.220423	291.928830	-377.516703	277.581585	143.559957	-381.859511	174.324191	171.296667	-447.390239	-231.647037	890.852838	-259.550157	-22.720811	79.996996	-457.038937	-23.200659	81.068935	-56.801454	
1001	5.0050	476.283645	1358.193279	-148.631373	513.655431	1283.789949	-440.808996	443.456162	1399.213632	-306.504817	445.808400	1231.667571	-289.730615	544.873638	1092.893792	-43.420487	721.238273	889.675134	-88.042022	551.067717	1027.723125	-561.276589	720.407357	860.089091	-465.242290	-77.756961	1177.005793	-305.386419	91.128406	1171.807362	-472.798830	72.722667	1214.249052	-142.673214	94.100171	1122.777109	-445.461134	105.587876	1165.682748	-169.945318	-53.907846	1225.279208	-260.109106	-52.514205	1214.730092	-364.373756	40.180322	1118.091128	-104.292333	28.754285	1028.774852	-478.906683	159.676477	1057.856618	-92.662761	240.314092	1039.684853	-99.854792	325.978747	1013.856093	-111.468853	252.753417	1090.038627	-122.945046	415.655662	949.535620	-138.271390	362.320966	855.671382	-103.428642	324.367110	779.387323	-99.237503	275.896826	704.479349	-105.015257	364.979899	754.921533	-136.674749	199.808696	585.597922	-116.071969	239.184822	590.249887	-197.608223	148.641975	552.748037	-168.879797	413.606392	499.804018	-145.835906	304.898613	485.699880	-78.710123	77.550962	911.709323	-479.500241	137.251448	845.188118	-478.094945	178.254040	880.596353	-483.664727	189.060027	779.799626	-458.297683	236.412174	678.011204	-440.913494	176.907088	587.118323	-466.559034	150.566755	505.332754	-456.013666	121.939126	425.700302	-439.582857	204.924469	491.437164	-431.388433	83.806187	306.209608	-420.125987	117.218408	309.105587	-344.912698	35.784202	299.327366	-376.975699	268.090685	146.035949	-382.109032	165.200661	176.185188	-447.223041	-231.759780	890.837489	-259.625295	-22.733667	79.970672	-457.076025	-23.212633	81.105835	-56.818217	
1002	5.0100	476.578377	1358.999735	-148.769012	513.828703	1283.857491	-439.639271	443.451795	1399.151033	-306.371383	445.472210	1231.373447	-289.016309	545.097736	1093.557931	-43.346805	721.025110	890.270907	-88.741813	551.087084	1028.393566	-561.207791	719.765091	859.584121	-465.500493	-77.890308	1177.578545	-304.443555	90.683727	1172.688182	-473.051916	73.453827	1215.625933	-142.549933	93.482277	1123.250762	-445.236352	105.838500	1165.514781	-169.512860	-53.598548	1225.795995	-259.499876	-52.291902	1214.874268	-363.573568	40.454760	1117.686140	-104.222447	28.503927	1029.348843	-477.922594	160.004499	1055.168655	-92.437396	240.290106	1035.823465	-99.913637	325.592014	1008.591239	-111.844540	253.568138	1086.136996	-122.606558	414.402569	943.183576	-138.899439	361.482264	848.106664	-103.561871	324.987853	771.095832	-99.170563	278.096250	695.154936	-104.846263	366.108056	747.372924	-136.454838	205.767564	575.406996	-115.974629	244.367606	581.112260	-197.679422	154.694095	541.392984	-168.383295	421.252600	497.362939	-145.574849	313.081670	479.491735	-78.243493	79.409895	912.886816	-478.805718	140.468170	847.706686	-477.229123	180.604338	883.949053	-482.042979	193.478755	783.165136	-457.862079	241.211528	681.476389	-440.392256	178.673453	591.447269	-466.326932	150.309574	510.428653	-455.966443	119.626318	431.507127	-439.527055	204.291719	494.865619	-430.911654	77.772639	313.327346	-419.886852	111.510575	315.209790	-344.426408	29.498148	307.081551	-376.523392	258.777956	149.301505	-382.244134	156.399477	181.644269	-446.945819	-231.836778	890.822058	-259.689656	-22.760373	79.983965	-457.050364	-23.000689	81.054610	-56.743853	
1003	5.0150	476.989327	1359.549889	-148.993507	513.780230	1283.658507	-438.762670	443.567371	1399.084564	-306.247130	445.272939	1231.060953	-288.203624	545.414190	1093.889727	-43.358953	720.974498	890.462257	-89.121173	551.263519	1029.213457	-561.200641	719.233488	859.305010	-465.801443	-77.865091	1178.004250	-303.416989	89.662808	1173.563067	-472.409373	74.346012	1216.489322	-142.171681	92.948759	1123.630551	-444.905871	106.190359	1165.126140	-168.998758	-53.230019	1226.184547	-258.622043	-52.299802	1215.006820	-362.566762	40.882722	1116.877937	-104.049590	28.389255	1029.796613	-477.737561	160.299731	1052.226665	-92.224990	240.272929	1031.606646	-99.798179	325.028774	1003.010889	-111.919513	254.384236	1081.853896	-122.176400	412.595395	936.316052	-138.536038	360.384764	839.746593	-103.269855	325.603523	761.973364	-99.101905	280.657077	684.989634	-104.415994	367.318134	739.195511	-136.367900	212.077744	564.845697	-115.524775	249.776094	571.455443	-197.727157	160.224703	530.228843	-167.488016	428.626748	494.004546	-145.292656	321.079949	472.613286	-77.870259	81.264272	914.123296	-478.082130	143.838597	850.345864	-476.447808	183.129432	887.310772	-480.370346	198.064628	786.692560	-457.676706	246.101347	685.069051	-440.044045	180.713107	595.729574	-466.259576	150.271291	515.564971	-456.022535	117.484047	437.547290	-439.503963	203.758951	498.593478	-430.582601	71.771291	320.879439	-419.755906	105.995224	321.743148	-344.020087	23.385385	315.164091	-376.167563	249.803832	153.312544	-382.305593	147.893198	187.589204	-446.735805	-231.870377	890.809124	-259.734912	-22.759415	79.972989	-457.050985	-23.228806	81.136686	-56.830706	
